<mxfile host="Electron" agent="Mozilla/5.0 (Windows NT 10.0; Win64; x64) AppleWebKit/537.36 (KHTML, like Gecko) draw.io/28.0.6 Chrome/138.0.7204.100 Electron/37.2.3 Safari/537.36" version="28.0.6">
  <diagram name="Page-1" id="Fc7U0pPD9r9OIFH3dabT">
    <mxGraphModel dx="1783" dy="1061" grid="1" gridSize="10" guides="1" tooltips="1" connect="1" arrows="1" fold="1" page="1" pageScale="1" pageWidth="1100" pageHeight="850" math="0" shadow="0">
      <root>
        <mxCell id="0" />
        <mxCell id="1" parent="0" />
        <mxCell id="uZEzKnc5bTBddtEJTUq8-12" value="" style="shape=callout;whiteSpace=wrap;html=1;perimeter=calloutPerimeter;fillColor=#dae8fc;strokeColor=#6c8ebf;" vertex="1" parent="1">
          <mxGeometry x="420" y="275" width="250" height="195" as="geometry" />
        </mxCell>
        <mxCell id="uZEzKnc5bTBddtEJTUq8-27" style="edgeStyle=orthogonalEdgeStyle;rounded=0;orthogonalLoop=1;jettySize=auto;html=1;exitX=1;exitY=0.75;exitDx=0;exitDy=0;entryX=0;entryY=0.5;entryDx=0;entryDy=0;strokeWidth=3;endArrow=none;endFill=0;" edge="1" parent="1" source="uZEzKnc5bTBddtEJTUq8-1" target="uZEzKnc5bTBddtEJTUq8-10">
          <mxGeometry relative="1" as="geometry" />
        </mxCell>
        <mxCell id="uZEzKnc5bTBddtEJTUq8-1" value="&lt;b&gt;QUCS-S Project (Folder)&lt;/b&gt;" style="rounded=0;whiteSpace=wrap;html=1;labelPosition=center;verticalLabelPosition=middle;align=center;verticalAlign=top;fontSize=13;fillColor=#ffe6cc;strokeColor=#d79b00;" vertex="1" parent="1">
          <mxGeometry x="200" y="295" width="180" height="280" as="geometry" />
        </mxCell>
        <mxCell id="uZEzKnc5bTBddtEJTUq8-2" value="&lt;font face=&quot;Courier New&quot;&gt;&lt;b&gt;.sch&lt;/b&gt;&lt;/font&gt; File&lt;div&gt;&lt;span style=&quot;background-color: transparent; color: light-dark(rgb(0, 0, 0), rgb(255, 255, 255));&quot;&gt;Subcircuit 1:&lt;/span&gt;&lt;div&gt;&lt;div&gt;&lt;div&gt;LM386 Op-Amp&lt;/div&gt;&lt;/div&gt;&lt;/div&gt;&lt;/div&gt;" style="rounded=0;whiteSpace=wrap;html=1;" vertex="1" parent="1">
          <mxGeometry x="230" y="335" width="120" height="60" as="geometry" />
        </mxCell>
        <mxCell id="uZEzKnc5bTBddtEJTUq8-3" value="&lt;div&gt;&lt;font face=&quot;Courier New&quot;&gt;&lt;b&gt;.sch&lt;/b&gt;&lt;/font&gt; File:&lt;/div&gt;Subcircuit 2:&lt;div&gt;LM317 Regulator&lt;/div&gt;" style="rounded=0;whiteSpace=wrap;html=1;" vertex="1" parent="1">
          <mxGeometry x="230" y="420" width="120" height="60" as="geometry" />
        </mxCell>
        <mxCell id="uZEzKnc5bTBddtEJTUq8-4" value="&lt;div&gt;&lt;b&gt;&lt;font face=&quot;Courier New&quot;&gt;.sch&lt;/font&gt;&lt;/b&gt; File:&lt;/div&gt;Subcircuit &lt;i&gt;n&lt;/i&gt;:&lt;div&gt;...&lt;/div&gt;" style="rounded=0;whiteSpace=wrap;html=1;" vertex="1" parent="1">
          <mxGeometry x="230" y="505" width="120" height="60" as="geometry" />
        </mxCell>
        <mxCell id="uZEzKnc5bTBddtEJTUq8-8" value="" style="shape=image;verticalLabelPosition=bottom;labelBackgroundColor=default;verticalAlign=top;aspect=fixed;imageAspect=0;image=data:image/png,iVBORw0KGgoAAAANSUhEUgAAAbQAAAEbCAYAAACyfnF9AAAAAXNSR0IArs4c6QAAAARnQU1BAACxjwv8YQUAAAAJcEhZcwAADsMAAA7DAcdvqGQAAF07SURBVHhe7Z0NfB1Vmf9/6XspDeGllCIVaF5Km0YpSrVxV1BzlyZESf6RoMvabVdJVqtNslpqgLK71KVW9vNJUi1uorvtVvElGJPVkBRTEHRJ3SAUDGltXsqb9IVSKCnQ9+Z/njNn7j0zd+beuTc3ufcmz7cccufMzDnnzsw9v/Occ+Y8KUMCMAzDMEySM0H9ZRiGYZikhgWNYRiGGRNYuhw7H/8f7N1RiwmD/WIrXE9kCs6lZmB+XiVyP3mLimMYhmGY+OAXNBKzlCdXYOn7jsodXtn5WhqGbtjKosYwDMPEFX+X4587aryL2dSLgILfAHNuwEcvP4qe39SpHQzDMAwTH/yCNuHYPpwemoRz518N+H4J3LAFmJyq9mpMmwUU/ha47K8wNHEa3j57Ac4de1XtZBiGYZj44Be0E+em4K0zF+HUh/8dp9/sFXsmAwu/rPYqpl0qxOxx4IJMDP2mGG+/9AecGpqKZJz5316egpQUI3ysjsYMDfrrPuaPT0kpR7uKD6K9POR+t/QZhmGYkSFgoWEI0yYcR8rJIzibli0nfODCBWqvYPps4NNCzFLTMfT43+Kdt49IMUtK+uvQWzQkhXhoqA2LKv8epub07e5EWZu5rx75RrRGP+o+JoSqBShTMUGESJ9hGIYZGfyCNnXCSaROPIaU/7sTp/fvxNkDO4H024Br7hBipiyzmfOkmGHhKpz3mVZg0nSa64jJKadVKklCRgUq/EqViYW56qMkFwsz1UdHMlDxlBCq+iK17UDI9BmGYZiRwC9oZ4cmijABJ06dxfE//RCndt4NbP8McHQvcPNjQsyu9osZ5nwcx568Eyln3kXapKOYlHJWpeKAsFY+5u96q0N5yseUtdKufSbs28oSUueWy749pzgnvB5H9GF35yJkCYOUzut9oROVmcZ5sekq1NNnGIZhRgq/oJ0amowjZy7BiaHpcvv4uek498Yu4GOb/N2Mppi9/ZtyTDxvFmZOPoFjZ2dKMXRGiFRmJRapLrz/RiMa1J7QkCBlorG0T3XbDaGeLJ72B1C5qM0a54TX4wTt5QV4oXaN6lpU1pc8LzZdhdb0GYZhmJHCL2hkZU1LOS4DdSMOTbkQZwuEZXbB/CAxm/r+T+D8Gx7AybklOCOEkMTQkf5evJBbizWqNs+ouMd93Emn/xE0dpbhngqbWZO5ELkNBVbLSbMA/ZM0nI4LwrDivrWwD0/Z85Hko6isE42PRKto4dJnGIZhYolf0GgcLHXSMRmoG3HGB78EnD6Os78pwekLP4zTE2bi7UfLMHHKDEy5KAPvPHUvTu4z+vJS5P9HgYwKPCWsp//G3we6ElWcYVWpSRxOx1kgsfl74L+HworNoqj6Cr2nzzAMw8QGv6D5SZmEydd8AVPefh5nf3UDjr30FI52bcLR5s/g9IuPYHLfD/HWLz+D488bnYfSqptwQn4OIiMLizor8YASlP66b2ldjjRZohO7+9Rme0tgX8bNKM1twLdcLKyMiqfQV5uLF3pDW0+ux8kuyXsQUmuE5fetBnOCiH18zwntGC/pMwzDMDFFEzRlZ9G7Z5NmYNKl1+H0Fbdg0nVrMTW9EJPTrsYFS7+JMwsrMOHSD2PmJ+tw/mULMXPiscC5QeSjvq0MDQVGl+Dfo1TrcsxAxT2BfdZp8DSWRWNYmcY+08qS734Z25mVi4K7JE3CHNff+wJExv5jKBjdkyRKKk6O/T0VlSi5p88wDMOMFP61HP+r+kb8w9VPAh/4BoZOH8NQ+t/i2PP/jakZn8GZI7sx9eBvcOaaL+PY45WYmHolUpdUYOiV7Xin91dofuUD+OK3n5AJhoYE41tY2BedUDAMwzCMG34L7RpflbHQ8O7v48T0DJx8+zWcevW3OPOXJzB9CjB49E35ftr0D9wh31kbevcA3nnjFTz92kws+JsqlQrDMAzDxIcg9zF7OjbhzOArcpIFQZNFzsF4R42gzsWpE07g5NB0pMy8Gov+ZlUEK+2zhcYwDMOMDBZBYxiGYZhkJXiWI8MwDMMkISxoDMMwzJiABY1hGIYZE/AYGjMmaPiT+pDklH1AfWAYJmJY0JgxAQnah2arjSTlmUMsaAwzHLjLkWEYhhkTsKAxDMMwYwIWNIZhGGZMMDxB669Fbm4t4r7sbqKUg2ESmWT8nfBve/RJ4mseWtDoi2krxhuhHO2j9YUd889FrVvGerliWcagcihHopHgVrZoyxnL7xcJlmsRxXXwSiy/34u1WHlZCj7sD+XoVLs8Q2kU1uJVtemZaM8Loh+1ufozGAi5rj+IUcbybKhyjcZzqucxGvk5EZQv3S9RVz0Wp/KYOF2PeF2jUSC8hba0Bn1DpgNN5UQzoxKdnZUYleUYg/LvRKVbxiNZLr0cbUBBpA+EW9miLfNo3gMdyrevBkvl9VAOVZOBD9eg+eAQ/kjhIWB1pCJzdSW2tFZirtocfTJQ2ameP//1N7Y7XX8Qo0k7yjMbUdqnyih+JDl7+kb/OY3b76IQpWhEq1kp9LeKrVIUfipO5RmnRNfl6Kb6/tZZCCsqVuj5ZVZhpxknyyVaR8tF3M4qZJotxViSX4SynXsgfZNavnfAYumvzVVxIlCZ3Mp2z92Ba+mUljqvttyMV77hzPTc9hOW9EQw84klIfIPugZGZPBzYkmDvvcI379PFeH//XEPXlXW00/WaFabxZpTcY+VG9umCFqOycVPXqRIoh33++NTcP9j/fjJ16rQ/ccqFIvtlQ0xv/q266lZzG7xCsd7M2xyMN9fc+ejvl40d9S9NZ7TcpQrK7O8PWBxWp5n4+TgbYGlzP46Jka/p2GTgcJSoNFUtL49QGkhMvTvYSmP9dkP7DfvFV2f4PsWc5zKZCLLFrhnsbtWI0d4QVMPivmFnH4cRutsD9apFuNQn2irLLc+jFFjz1/efMqvCjltZn6ixaoONxCt2W2BVmysW7D9tevRsHQBMm3l6KvpRgHdcfEgLK/KQZu6Hm05SvwktrKtmKXiXdIixDXYU6S+KzlMXW+7to77w12jGOKUv+M1CPGc+NMgq29k79+rDevxyw8vMKwtITYvLSPLrR65onz3LxXP20OGJdd8XzdWrxH34FP1+OPOGlFdE3TMHtxhWns7S9HxNRI6IV6FBYA6l8Jdn8rA335XnKeswy1lsW6nuz0zIZ4lIuTzGS35KCprQAH9Rt1qvZ3dWLBN5Cmd/i4HzM/259mFjMpO47mh0JaDKukKfwR+T1GSMT8HO8kqFbS3NCAnoO4Cl2c/Yz5yVOO4v7UROWVAiyxmH/aA6pgYIL6vpQ4V10UaAG5lkvsU5j0zr1XBKIjsMIiuy1Ht8tO/F91QD7N5wUwLZrjY8yfznfIT8WtGs79LeygyG0vR51CODNFEW9rQgnZ6SOX1MG5+fr2Hrjm3tGhD/66ZC4KFyWn/aF4jp/ydrkGo52Sky6qsJLKcin9Vimaz+1CIzRc+JY8Qltde9Gnbc32lyPlRi3W8jY4R32G1SuvDQgC7pbXXig5oaY0Gbs9MqGeJiOb59EB+vfqNFrUY99cubEtLUUh1PD0j+me50wO6NVHQAHTvdRei4fyeooV6bmQe/djbXYYi/aK6PvvUEOjGXvFF+vbkoGjNAnSTotHxOfOFXMcA8X0tdajZuHUtk4Z5nwj6fuIMKmuiEl2XoxP2i5ZM4yte0L9f2D7xfNTLY4vQIh+WOLRq+vaoVli8cLkG8XpO9DG04Y6F6WnJQNZdMjHCz2d+vUi7TVXuMYLETB+jG8keh6hR4tTeisacouDn2uXZF5qKPX3taOkWFhmNxXWL6yZ+vzkWRRwhxli9HRtBk2ZzFWQPwGgg8wsMwJKp7lh5x8pKdMP2vWU5ysSDLH585bIzmiqOPtQsFQ/5y8Yxfuxlc0vL2IwcOc6nDVKPNk7XABE+JyN9/+xcPR+ZwpL70WPG5qsdjej+QpFVrGzH+Lm6ED44xBNkwamPMcXtmQn3LDndm+E+JyQ4lm5NspAi7DLT7rfjb1qzFoL2j/TvySP5RTmoKqgKFiNbeXTIesT69eimMTfxjzZbWoAFMelvDEGIMjnS3oIG3WJLQGJkoYkfhmgxdRco05WCOdA5XMQFt47h0cClyI/60DONuOXCVA9qrWVUYp3q0x+5ac3W751J4xI0EC4eFFE4Vd5MNJZuQ+WV6hRCL9vWwyrSJa2osV6jQL/5MJEtZeqaoPsSomXvdA0yInhORuX+2cnHXTtFi/V21TV5bw42PWC/B9ZjZJCTRYzxMj3+fhK3qytxxxeMLsrYTwpxe2bCPEuO90btixZpWRSoNEUga2pbBLP7xP3eRuNc6vyg3zQ9DzmBusCyf1R+Tx6R3XK27kZJiGef7of4cZYqpaDNBmGtjbxwePg96vVvAdCW4DM2eXHi8UJ7OVJaijA0Gj/qODDiixPTTMeaBYGxtxGAFydmEgpqvNLcnSR67SB2Y2hMwtGuTU2WrasxKmYji5qKf3s3/um78XwPjWGYcLCFxowJ2H0MwzAsaMyYgB18MgyTMjg4yILGJD29vb3qE8MwY5WsrCz1yRm20JgxwTPPPBP2YWcYJnmhRuuHPvQhteVMytGjR1nQmKSnv7+fBY1hxjAkaBkZoedb8ixHhomCc+fO+QPDMCNDpL8vi6Cdd955MjAMwzBMshFkoR04cAB/+MMf1BbDMAzDJAbvvPMOTpw4gdOnT0vrzT4FJGgMzRSzj370o/JvLDg3dA6bf78Z//ncf2Jw2iDSZqXh5ImTGHx1EO+b/j5884ZvougDRero2DJW8z5z5kzQzfQKvWg9adIktZUc7Ny5E7ueeVZ+Pj81DddevxQpQ2flNjF9SsqojqHpXSETJnDPPcOMBPQ7M39f5kxm6kWcOXMmpk2bJusxqs9Mhj0ppKenx/kHTatTiD+nzp5CzTM1ePTdR+H7Gx8++77PYpr4R4U4dPoQtrywBS//4WWsmr8KlfmVxrkeGa95UwvlpZdeQuoFF8i8JCpfP/ZtjbfeegtXXXWVfCC8sv+11/D0038U3zkFU6ZOxaVz5uIciaraL/OiPMUH+o7yL8Ua/8nPEyZNwF9eeRmnTp6UxyzNzcXFF19MZ4bl4cZG/OQnP8HCBQvxges+hIJbbrNc/wMv7WZBY5gxhl3Q9u3bhwsvvBDve9/75N+poi7Sf38WQTPHz9577z351wtkJJw4eUJWUJSwUZkFwn2P3octr/4Xcn25yE3LlZXxLRfeglffeRXdKd3ynJ++8lPs79iPn/6/nyL3au+OOMZr3u+++y5eEwIz/5prjPy1fAn5l7blltrW6O7uxpw5czBjxgwVE57fPPoofvv4b/Ha/tfw8Rs+gdLld+D8aVPVXgFlqf01ymTkLTRQfN8UHHvvJBq+V4u/vPoKHYmCmwvw1x//uPzsRudTT+HZZ59FX28f5l45Dx/PuwkThOU7aeJksdf/6OL88yayoDHMGMMuaNRTM3v2bMybNw+XXXaZ1Cz99xf0S4x0DC1FVFSUoAxUeZl/RXjlrVfws+6f4tyic0ibnIbd7+7Gnw7/Ce+f+X5MnzAdPW/3YM+7e5B1YRYGswex+uerVareGG95nz4LDBw+h/7Xz2LwuLjRKj9TzKR4iHIYImLdtodIoe7Ns2fP4tSp0xgSD9mkiSl4/egxHBKB/r7+lvhM4U3j74G3BnFAfD7w5iBeOzKIv7zxNiaKp21IiBGlQ+Gchy5TEu4djz2G888/H3NEqywzawEy5mfjqowsEeb7A8MwYx9qzJ88edI/5GIfdrEIGllme/bsUVveoMrRrNhTzMpTff5d/5M4ev5RnD7vNP6w/w94bv9zeOHVF3Dm3BnRWj+G5197XsY9+/qzSLk0BUcmHcH+t/erlMMz3vJ+cu8p/OKPJ/Do7lPi+HNGng5Blskh3gyE+dcr9OBQa+kKISo0NjhJCPrVc9IwTwTzrwyXXyj+Xoh0GdLk3wwRd/VlaeI8anEZ6UgLx4OgEdkLFqpPhk124tQZLZyWgWHGFAObkZe3GQNqM2K8nt9RgdTUVBkqOlRcAuMkYjpBFhpNBolkQoheUZoWgxn6jvThRNoJnDh4Ahsu3YDvZ30fW3K34JLpl+CGq29AQ06DjLv99O04d+ocTp53En96zfuifOMt79NnhjA7bSKuvGQSzp8m8hLCpQezPIT+mTC3Kew9eAbfe+xdbOp4D91/OaOOCI0paBTIQpsoLLQpkyb4w2QRJlEQT5TQOjpDWmCnhSVGwnPy1FmcOSvOp2Cm41HQTChZur4XzJimhenyb8JAFYmoHPI2a1XJcCsnHZW+WQmlplYg4noo2vLE8nuMJzTRkMFUjlhdT9szYXn27Fjy7EBFSQ827BrE4OAg6uZFUB6V54g951FiEbRo3kMzK0mqaEwLxQxDM0SFNZMOMo4Nx7nzREU3xfuLdOMx75Onz+G4EEGhC/4yOAXCbXvqZOBSIYxTp6bg1TcDMwVDQZaV2VV4RoRTZ86i/7W3LGGA/u4Xf1XYd+AtvHjgKF46+DZeOiQsVnHOmXNGGrLLkUy2CKEzKG97SCiWrER2czlC1SvDYskG7BIVEFVCg01ASaSVSPoq7NixCulqkxk5BjbnIbUEaDLvlwhNaI28EWISJBpClBY3o1iJ0qB4ILJ796l9Duj3fqAXPchGlpcHwUmsRvo5j4IgCy3iMTQR/JW6+EufzbB03lJMFv9wAfC5/s/hxq4bceOjN+LguwexvX87bvxfsS3ivn3i2zKtqTOm4oqLr5CfvTAe8zYETQiCTdAI/a/9s7lN0LkkiieFxecVi4VGlpcQkYtTp4kwXYVpuEhtX0Rh5nRcKMM0I5w/TZ5jphGNhSYR5xw/edoWvFmZo0cWVq/NRvUmh2pLtWyN1nSeURnolYXcb1pdA9icF8YC8xViZVcv9qk0NldQuuocS14qzrQWLPmZx6jySERF6Y+n7ihRlvJqdHVVY7HYDmkFMIoBbG+GsIDq4FMxhK+Otm3X8777gu+fZ3RR8qGuLpDbdpmeeQ9FhP9ZIyEU+WMLSmh/3n24L+L7G+I5jwNHjhwZ/hiaqCktlbq/AhVxvqv+BtOnTxcJi+MoJ3r1SWxKNaDPU9RfqtdOQM5aWXThIrHhkXGYN4nQCWmhDfnzJJz+2j+bgc6VgibE0Su6oJFldfoMCesZEYSgyGCMaZG4WMe4AuG01t0YraDRtU6zdDkaIeHw1YmWeIltXIIqkV6sNVvru4rRXC4ql/QsZJMoiSMGRA2YvRJoleftQ6+oNObRRxcGNm/EliXqGFEZ9RZS2lRhGhVWdpOR164NPSihwohyDe7agCXybJfyUGWbJ80KI16EOl86VtWL85R1uGMV23dhGdiO5i43C8h2PW+/2Hb/vOJD4UolSvZBMH96IjStxJaNqhEjEcJHz4Fp7e+4F/dGc38dn/PR5+DBgzh+/HiwhRbpGJqlMqcgKnQ5piM+Tz07BZ9/3+cxOVVYK8fFwVTBizr0Dwf+gD+/9WdRO6u400Z359czvy4KFFQkV8Zj3nqXownlb/51CgSJhxlI0E6IdCITtMDsRLPL8bUjx6zhjWPYrz7vP/IODlB48x0cpPDWO+IcQ8jMdCjNSKHynzot8reFRMS3egN69EpEdvGoyocCtZClkFGl1INeceC+3mwUrs5CDykaHZ+dFdw1qFrRlMbi5mLsMruQRGW02qwJ6VxtO31ZMZZssXV1uZWHKmJoaTHRYzY2vKDfPwuatSzvUeD+kyXlq1OiVdhqHGOqi57evCzViImEEPk+dEQd4/CcjzL0Xi3NfJw4caK1Fo1mDI2gStOs4PWKnqyU2mtrkTsjF9PnCROFrBJRiX/uic/h27u/bVT2os4/75rzcFvKbSi9rFSmFwnjLe93T5zD4PGzwtpxttAI/TMJCE1xpUDLxVAgIRt876xMyytDQgRNy4rEiCy086ZMtoapkzF96iTxeZL8O038NcPUyZNkl+NZUW4znWgsNDrlPWUV0l8zJCTpq1Bf3IxN29U2oVrApuVjtsZFfYPefR1o7REVYPoyFPcI8dnXi+xChxpOT2O4Y2Eu5WFigLS8m7F92DW9sKbM+6NbVSJYLCmyvgebsNLecImaEPmSRWni9JyPIq+//rpcJILquCCzIOIxNFWpyiAsFMu2CJMmTsKvr/s1imcUI+2v0nB+7vmYcN0ETMyZiOmfnI45H5yDb4l//5j6jypF71jyGuN53/mz1/DQUwfxx/7DeHrfMfz8+RSU/aAPdzT0okyEO+r3yvCl//gzvvgfe0QQf7+/R27Tfgrl4ngKP38OIo1BmdZD/3tAph0OmrFoCtEbrx9GT/dz+MNTvw8K/0eh8/foUuHpzv9F187/xdMi7P7TLhx+49CwBG3CRKPLkcKF6i+FRCV91VqgWrRu5QZVcNVwGnIgCwobN6KneJkQqHTQZmsrkOW5eW/Dlhd1ZXatLLSKlVt5SFDhXE6orlGJZbxPEG573OGDMF5Qvdh6DToqtG39ekYDXWO9v09a5hFYhXaiLI/lOR9FqKuR3lElC43qE4ugRTWGJrBX5mYw95034Tz8aOGPsHPKTtx59k4sP7ccX0z5Ir73xvfwwiUvoHJRZEs/6djzNIO5b6zk/c6pifii7yp8vSgL3yhegDvyF+CWj86V4TP28BEKV8i/t3z0/TIULb3SH75UsBBrRBpfvyULK/OuxqwLz1e5uEPdg+eEZUbhjdcP4uH/+j7aHv6RQ/ixP7T/wgjbRXi06SH8clsD3jl61J8OWX2RsHdPD7b/ugkP/+xH/vALFRIX0cptWhn4LFq6PSWqG4eCOTlDiAvVBsXLjBY3bW4R1prajAJrXours9GkTRYwcCuPMb6jx8s6U7TE16rxGp4U4o30VTuM8Uvz+opQAtWw0K+n1oUXEdKaL/GnnUozHuujtNqHdX/153z0kONmwqAwG8nDXstxqjD1qHIy34My/xJufwn9M9HV1YX58yNb8WE85f2VHx3G3NmXyBVC6MZNnTiE86bR7BJn6OVnmnRi3Fzjg3mj5QSNc6ItI8oyY8oEHDpyBJu/MEvtdabpF7/Ar//nV2orNtz2uc8h/+YCteUMreH43C5hUgqoBeZm1X3xji/x0ldeoZmOG7MCY28Mk6DQ78z8fdHSVx0dHXIdR/qt09+//OUvUsjJQqOhHssvMZoxNKqg9WBifnb7SwWlsRgKeuUQCZSWHogdO3b4P+t/6UKY2yOVN2F+dvsbbd4XTKdxqSk4T4QZ06eKmyc+C0FzCtOnTRZ/zWMmG2NYUyZi2tTJmDRpohw8nTF9GmbQMeL4VJF2OEhIqLyxDJF2OdI1pIfbKTBeUIP89DJttK14hkkwqC6hOoCstaDFiWkMjbodvc50JFWkBM3KRq/A9c/mX6rIafDu1KlT8jwZP3ES/ry7J2IryZ73yy+/jA0bNuCmm26SKzHfeOONMo5U/Mc//jHy8vJQXFwck7xpsWESzylTpmDu3LlYsGCBXOy3s7NTrgB97NgxiGuLRYsWyQU1b7nlFrk/2rwf2P4OLrr4Erx7whDCqZOEhSYEyxFxR2nMi/7Jz+L4SULETp4+jfdOnEHKhMl0M+Sh0yZPwLG338SaZaG7HR/+eSNampvVlkHVN76Oiy66SG0Zoqdjbv/spz/F4489Lj+/+eabyF5oLGX1+dv/FoWf/rT87IZuoZkce/cduUo/pW/m8YUvfIEtNIYZY9DvzPx9OVloVJ/QflNXLL/EaMfQCFO0CKfP9JcypDzoBbhXXnlFFLAPA/texPMv9ODSSy+Vx0WDmcfll18uV5En4SLx+NGPfoSf/exnuP766+W7Xn/9138ds7wfeughme5CUTmTuD355JN48cUXZXj88ceRlpaGt99+G3/84x/lxW8WYjCcvFOnC6tq6hBSZ0yU4QIK509wDKnmZ3lsCtLE5+lTz2HyhHO4YOZUsW+S2GfsP2+qkXY4zp47658laQYSk76+PuwQDxmFfQMD0vQ3A4k3XRtqeMyYcZ4MU4SFaZ6vi4JX6F5/5StfwW233YbPfe5z+PznPy8DwzDjj0suuUT6RCMjYvLkycGzHCN9D42QgqJExcQUGYI+k4JS5Xb48Bt4QVglr7z6qrBupuI9UfFdfMFMaVFFg543WUv0pUhM6Ds8/fTTyM3NlVM6ScVPnjwVs7xJNEnU2rdvx5IlS2ReZLEVFBhjQiR0JLBXX321FFkSs+HknXreJPE9JmCmEKgLzqdgCFKaLUihU2Jl/J0AmgQ4KeUsUlNJzAyRSxXx9HfaNPFZpB0OEh9qkOiBBK3nhRfQ8stmGfbs+bP/WBIzaryYHmbP0pR9EWgiiHl+tIJG5/3p+T+h/ZE2Gfa/tl/tZRhmPEB1D2kKiRkNodA4mqzn1X5JtO+hESQpuogR+jZlTt1wZKFccfkVyPvUp/DuyeOiwp2B94mKfzjoedMXJeeXZJoWFhbKv/TeBFkEZC3FKm+qqL/4xS/iHfGdqO/2iiuukF2M1BVmlsWsfOnYt98eHFbeF0yfIN2vTJ8qRGjqBEyZDEyeSF2JwWHyxCFMnjSEKSJMTBE3fugcpp1HY2sT5Ll6ID9llHY4aFHhM+Ia6oGutYxXAnX6dEDE9ECC5hcx6hpQ50e1lqPIk3j90CG/RUzPFcMw4wNZ74h61QwkZtSAJi/WQTVZpO+hiVpbfTBwEjXKlATl6NG3hYV2GBddfBH+uGuXfBn3/e+fq46MAoe8li9fLrtNSVjIWvryl7+MN954AzfdtEzGxyrvC4QVSDMUi4qKcMEFF0inc2S1ETfffLO0Fmn87P3vf7+suKm/dzh5z5w2EafNJQtFnU4vR7/1zsmgcJTCuyfxtvg7KP6+d+osMEFYYPJaWa8XQWlS2uE4R12OJFpaoEbK6TNCnMRnCiRcdjGjcPKE4b+Iwll6FsTfGz/5SblqP8MwTKSYDVv6S4G6HAmLoA1nDC0UlCFVfmTJpF54IQZefhnnT5+Oq6+O+vU/V6688krk5+fjQx/6kBQ4EhISG1Lxj37sYzHLOzMzE5/+9KeRnZ0tt6khcO2118rPJGRkClNXI3UpkqCnZ2UNK29yG5MyYQjvnjgjRer4mRScODPBPZydgONnJ8rjaKms906eFUGcawvCWpdph0O+ia8sKzOQWJFImZwR6mgXMwq6hUbPAZ37qrgWJJIMwzCRYhpO9JeGk+gv6UyQhRbNGFo4zMwniNpz8tTpuPD8mdJyGQ1GK++ysjL/bByTWOadmvIWZh5/EdOPDcQ0XHhqn0w7HCW33ooFCxf6hYkCidVHly5F9T13Y8031+ID134wSMyokUTW+VkSMxFIxOjc5557TjZwwmGfNGO2zOZcPgfzr7lGhtTUmTKOYZixD9WrVNfqgcbRyIgImrZPUCXkld27d8vEdMyK3IQqoVOi9f7WsXcwP/1qzPY4sy8c4ylvmjX4pz/9SU4uiRVUXpp2/4EPfMBvsofiqaeewrq77zGcBoiH58MfWYLpU6fJbkQSKhpPo9mQpuiY0KSNl158UX5+8+hbmHXxJXLyzmeKbsGqr35VxofikdZWdD7VqbaA27/wd+pTAOri5Wn7DDO2oN+Z+ftymrYvX6YW+6nOoTDs99CY8QV1HxIk5jQZQ38PzQ160EiQCZrmT921BImQVzGgd9HeffddmZZsidkaDxdfcjELGsOMMcIJGmmWblgELX1lTghhQWOSif7+fhY0hhljRCpoQb/EkRhDYxiGYZiRhpuWDMMwiQa5hTE9MUSD1/NpoWpa31OEeHudjgUsaAwzAgxszvNXFBRG1N2K9DsWyCs1Gh9k0Vagw614xwOaaMhgKkesrp3t/od81ix5dqCCFqreZTjtrJsXeXlG9Tn3QMqjjz5qnZLGMEkIvUifKGNo9CNf3FysuWehVe5L0LNhl9XDcKygSqocqDfzG033MPa8GQvyWSBfdJoncHLwiTqxHeraue0LiqdnayOydu2A8WiJbUp+dW/4+0JpLe7FWrNsEZZnNJ5z+xjaD3/4Q8yaNUsuCE9/zWUNTYbtD41hEoHEmRRir2AUZoVQD5SX9yIbW7BFufdd2SRax1SjyArG9Pq7RLScRRowzivOrkb1FrkjcLxJUGVDZWhF4a4sbPSfu9KoVC15qDgSwBKROLnYpzScyiETNiosVQxRjl3I2rgY1ep7LBkpwU5aBrDZuDHWZ0FC+7Rr941vAL+7OHCv1L0LEhe3e60JpkQdF/TckBUmz8/CJu1eigLgG/h3/LvbvXTMN8Rzbi93lEQ6KYQtNGZMkDAWmusPWhMZ8ipsVgRSTCCEpRCtesVkpkMCKMQl2xQxJ+vLlqe/5Ww/VwmSyExuy+N612LQ2FBpUEXnUI4dy7BdVMC9a8OJKeOHro1uAdnRr508VrtXbtfVIb6jIhXUHhGKZdxLwp6e+dzIBpWWp56WW56E52NdBDZKohI0WhGeYZIZGgNIGkGz7Fct3f8pRvMtplVk4tBSd0qf4vwWlUC3tEKdK89TFa65T4lg2HKY2NNkAoS7Nvp++7GWbaMh4remNCyWlGlpk7DZuxzN9CIStBD5KosycKxJfAVN+yUyDDNs0rOQ3dWM7fax8YFe9CzJQshVPEmIhDCTOBshgkpBPzeokomQ4ZSDCeD2LESMD3Xmvdi1AUu0+2PpFvTVibgmrNzSKmQlFoTI996l0T/nIwgLGsPEFB9WbwCqy/XZYqLVKqweFC8LFpqOVmxZUoxln6DKrxqbRnLqtKxgA3kMbG9G18pCq1jZjvGTvgzFcClfVy/2qY+yla/Psgy3PaZRz8Ji6/elSSH+bf3aRQNdT32+/XAFxXN5InzORwkWNIaJMemrdmBXcTMW+6czG+NW/ta0EAz/PtolLSrRGhat4J4S8xwRYj4d3pqHnH1nGRAj3MqRjlX11nhZj6avwtqVW1AituM9ZTsRkc/Chh55fczrVgLViNCv3UNRrtFKDY2eEn/aqTQ+Wx+lhR7hvQz7nMcBHkNjxgTUDZIQY2jhCBqnSBCcJpswTJwZX2NoL29FaelWvKw2GYaJFBrEF61resE22pY9wyQIwYJGIiHUL2vdkyrC4Ml1Ii6UeEQiLmYeWrBlxzBjk/RV2JFQVpA58O/0rhTDJBfOFtq1t+G2vZux1VQnIUCb914Lwx+zC1euQGPjClypNsNy7V3oECYkmZG9HXdh7x0sagzDMEz0uHQ5piOvAGj7raFoT/7wfswvEBGKl7eWatZVqSF8poWm/m4li86r9UViSKK2WVl4FgtuHQKnP4l1/niRrv6yzJPrRJwqC8MwDDPucB1Du2rFKsy//4d4Ulpnd+FLn1A7BFeuaDQsKwo/mI/7f2hTrOfux0Ceuf82/NwUqlBceTXmPzeAl0i0fEJAf2Cc33HXXtwhFfFlbC29A1DxFNYvMU6VAih3NWKFZxORYRiGGUuEmBRyA/Ju+znuIHFZZetK1C2oO34O7H3RKljXCgG8QX2+Kj10V6Wdl1/EXu38Kz9RgGt/vkMI62/RBi1dEyGePt8AVvWuFyVmGIZhxishBE1I2pfuEmJ0G/J0pSAx87WhoENZSh10TAyQQpaOq9SmZ4T4/cBvxTEMwzDjlZCCJse2nCyfawvwCWWyvfzbNjxnfBwGqpuRLEHZ9Xg/zF5Mmf5tebjhyk+gAIF4natWNOIHuAOlPIDGMAwzbgktaE4IkVs1/374VJfjmoH50Vlo1FVodltmbUa6sPjWS+W8AevVrEfa57t/Pn4gd1yJFQ8E4inok0JuWP8DzL/fx6LGMAwzTuGVQpgxQdKsFMIwjGd4tX2GYRhmXMKCxjAMw4wJ2GM1MyZIGI/VkeC2UHE0Cxgn6qLHTHQM9356Pd90CipYaXq3TiAi7XJMOXr0KAsak/T09/cnmKANYHPeYlRjg/sK9pEIGsWF8iSteyJWeyMm0ko0qEyiPJE6A400T5Noz4sHmmhIyKM0KUeo7xDJ97PdB+nFetl25/Mt6dLC1BuRtUut4xnVNfXwnA8DHkNjmERgYDuaRQW/Uvx/+B6LFU6epOO92LFepiagJFIfbgm3WHNsGdicZ/i80+5bE4bhUZpEx3KNyalmM4p3mek3Ibs3hItO/XqTM1BkI8vLxQ/KVzESz/kwiLmFdujQIfWJYUaPY8eOJZSFRhVZOeqxtncxNmaJFrO5lL2tNS0FgSoYt3i1Kc8L1eLWLTRLWkuwQbXAqUyLq1UO9vTNlrZ/t2rl+9NxsL6CykQt/lYUKquxOLsa1VvUeZYyqTjTcnG8BoFyG+mWwLRxVjbtQtZGW1kT0lUAXVN5gRw8Gdiu9ze+Afzu4sA1My1vt/ttv+Yu98ZIz4iSXYrzzPOzsEm7pqIA+Ab+Hf/udk2D8jVwfc5jRNy7HEnQRrNiYRjimWeeSSBB0yqyfbrjTKNiFrW5MVbhrySMyiU4Xqs8KE4XPIlW8fkFjdLSKjgzLdq/uBdrVXxHRQVQ51wJGvlayyrFsHet0VVmYiunPKa5GLtkXtXI9o/JhEjLn4ZLuXcsw3ZR8feuNdNS2PJOSKiM2jUPQv8O8ljtmrl9P4f4jopUyB5NsyuTsKdnOnC1N3z0tNzyJBz3uT3nscMuaL/85S9x2WWXYd68eZgzZw6mT5/uLGixtKyoYln/7Tq1xTAjT4HvrxJH0Cw/fqrM1TgFXCoQvZIJOl/hVtnY01BiEiR8g4VolS1yZR2pPRb0POz50ba9cpZxWl66pWU/1y0tc59buT1bKglIuDLq++3HWraNBoHfmtKwWFKmxUvCtrrXOb2IBC1MvpZxOu05V8WJBXZB+/3vf4+5c+fimmuukX9nzJjhLmizZ8+WkcPBtNBI0NZ9U7QCmYRg//79uPzyy9XW2CORLDRL154iuAIQOFUyery/YhE4xRH2NOxpBWFWUg7Cpudhz4+2nQTNKS+nc93SMve5ldtrHglJmEpe/w727xP196Y8A92+QelFJGgaDvtcn/MYKppd0Nb9y7/hggvScMms2bggLQ2TJ0+x/P5sTUuGYYbHALY3d8nxCnMSwGDTSnQ1b8dAehayuwKD5wPbmw2LxC0+GmRa1dhkn3UgKqSKzZQBeajehQ1LetDrNIjf1Qs5pcCWjizTykJnyy4cXtJyK3f6MhTDIZ4wy0pQhZtaIapzRbjtUcGH1RuA6sXWfKm717+tf4dooO9VoaVOEz2WZGGe2owYz+UJ8ZyrI0aCp373GD77mY/gH1d8Cnd+9dO455+KsO7rxf7AgsYwsUTO+tqA1Xpt7SvESilYQkyaskUFl4rU1FSU92bDcOnnFh8NIq1dG9BTYqQlA81OE4IhMlBxi9FcXB9sNaSvwtqVW1AijsnbPM+SzuLqbDRZBrEiwVom57Rcyi3sgVX11nhZf1vKOpJV6PBIX7UDuzb0yHKa5S+BEnP9Ozx0RB4fMST4PSX+tFNpxmO9g4XlhUiuacjnXG2PAP96b6X65Ax3OY4TuMsxtoQcQ2O8Y05WcOrmYsY9QWNoT/wKc+dejmvmp2PuFZdjxgzrpBD+JTIMEwdorEdYFCU92BCtRcEwNljQGIaJAz7UybGX2M6KY8Y3LGiR0l6OlJQUGcrbVRzDMAwTd0Zf0DRBkCFaVeivRW5uLfrVZsREdX47ygu6UdM3hKGhIdTnq+hkhL6/uP65tdoV8HJNhnvdGYZhRohRFbT+2lykFABtQgxIECi0oUXIRJLQvxfdyMH8DLWd7CwtQ07jcuiaxjAMk6yMoqD1o7URwrqph27Y5NerbWUxGJZbuSFyyhqoLQ9YdIZB14/a5VXYubMKmaaVYTk/16ikIzlfx6ksZJ1linPQgAKKHxNWygKsWZeDqgccmhSO18DjdWcYhokDHgVtHx70paFSvr9nfE5LS4PvwQheCexvReNON+vGEIucNsNq66vpRoHZFSkqzz1FyqJrK0PDehKSDFRuq8HSpTXoE/GdlX3i/D1Yp6y+ob5SNC5XguPpfL1QbmXJR31f4JyhzkqRyhggv15YyQW28UC3axDBdWcYhhllPAraAHqfXoGb6SW6jk24K/thHD36MLLv2hTZm/dLFyBTfbRAXXmiklyjTLeMwlIsbVBdkVo8MhdgqfpoQXYFKsuJAllSO/egj/Z5OV8nVFnGKPlratAthV7h9RqEuu4MwzAx5p/vq1WfnIm4y7Hjka24XjrQSUfW9T3o82qkZcxHzs5GtI5U811UwNJy8gdr1yYTgoxKbCttxAOtajsS+LozDDNKhFspxKOg+VD7MHBrWhpu3boCd35lnmGpoRjLPC8alg9hCKAq0xyPMWgvF9tS7KpgDuX0tzZiZ1lR+IrRtAZs53vGyZqItixJTkblOnFzaIyQNsJcg+Fed4ZhmBHAu4Xmq8XRo0dFqDXWIaPtjq9EtAhmRmWnMR5jdlGJUACqKI3xqe4CIy6zKgdt4ebEC6tiXZnR3ZVbm2k5X4ZwkzYs5+tHRlGWMYH43m1lgc9u12C4151hGGaE8LiWYwcq0x7BzaaYSWhyyCZkduhxvJZjosJrOcYWXsuRYUaeUV7LMYIxNIYZ75CrD7mCPMOEYbjPitfzaXFotVK/7oUmWQkjaOYU/VuxVfyjMTSarm+E63BX9p2g4TSGYWxoFYUMI1lbSF9fWl7R+P2KtgJlkQ6P27MQq2tnu/8hXb9Y8uxABS0OvcvwZ1Y3L4Ly2Msuy5CHQNa0+PRo+58LK2jz8JUOGjdzCbV6ZyPDMAR58k0tAZpMx4ciNKF1ZH/cSzZgl5lfE1ASaUWZvgo72IVLzIn5sxAkgkI4yAeaEqVBcfOze0N0m+n3mZyBIhty0no47PlKh6wBZ6DktJWc+PmzHq6j0Sjx2OWov1it6KhEmu9B/xdiGIYgT74Qrd46y9iyr866bbRozVZ1oCUrK0Az3qxALMfqrWAXpKNFUdmoSmhzhZaHU76mBRE2P+XyRYWKjgFsLq9GV1c1FovtRHa0GR9CPQu2a3fffcH3yjO6KPlQpzlP3S7TM++XiFDPxADdy8UifxgOPVPz7sN9Ed1LHwpXBrye7+vNxtq12egJRADFy0a9geRR0LQXq018q3E/mrGdFY1hApAn365wrV6jMslW7uulR2OqbURlU07enM2WfDa1gOnYXqxVcYO7itFcrrfQgxnYvBFbzNaxqKB6C+lcqkRd8vXViXQ3KC/ZbvmJCjhPmhpGvAh1PsOb9BJlHe5gPzBWQj4Ltmt3+8W2e+UVEhYlSvZubX96IjStxJaN+nNjeAg38x/ccS/ujfBezssCmqV7aqEPEM+baEhlN2+XeXS0bkG2J9MvtngUNHqJeise0a/XPnGzns5GJo+hJQVjeYZjwhGuq0V2xwTc16cvK8aSLa3ooG4c2WI2WuiyJS+7hVSFRYFa1VpXjx/VsqZjFjcXBzxAa/m45mtsGrjl5+RynwlPJN1u+r2yIBoZlvsRuNdkSfnqlGgVthrHmMKmpyfUx2iwRELofOn5kX2M8tnIEs/bPPF/ejaFwPWsROEIPCsxWimExtLkm9WBSSHXNaP4WeuUfYYZ98ixhWbIhmvEmE4vC9EqKw7V9SQqJv/4mAwOLXj9mOGOhXnJjwnPsJ4FHfO5EEG3qkSwWFJkaQ82YaW9kRI1YfKl70d57etFtlSvdEiNG9hnWGxGIjElRiuFED7UWiaFdPAMR4YJwofVG4DqxdZxkI4KbVtWdNXYpCJoQL1rZaGwxjajQo5dUEWyCxuW9MiKQT92WLjla2wa2I7xk74MxXAph5PFyAg8PAvDvXY0JqZ3NQ53MkZE5THG0TZu7EGWylA8Pmgu34ieOIyfEd4Fbd+D8EnrzAe5yD5PCmEYR9JX7TDGp8zuGhFKoAuHMX7RU2LsW0zjZjSQT7VB9WJ1zmI0F9djVbr1WBnMyRsR45KvBbf8jDEfPV7Wo+mrsFaN4fCkkGBCPgv6tXvoiDw+Yqih0VPiTzuVZjzWR2mhR3EvaRyti5ZANDOUEV1xGT8jPK4UQrMcy4H6DmRu8qFvNVlngTjdUhuVlULIBxet7K42ibI2Dx6k6bzlwLZYun4ZiTSZiOGVQoYJzXTcmBUYe2OYBGCEVgqhWY4JNgFEX+VdrSdo9enFMEx41MA/vWAbbcueYRIEj4Lmw80rbLMcI15tfwTJqEQniZry6dVfmxtYLNfvRTnY27LzcbbzzcV2yRILOjZMmrxQL5Pw0HgdDfTvAM+6Z5Idz30lvtpnkfUdch/zNO66Lg1ptwIPR7ja/ogiXZkYbk1oVX+/f662HFRJ/ybBXqodjxPCtZxWl1fxbTmUJnlwdvLMbEuzsNXhXIZhGGY0iKDz374MVgJP2detqYIGoHuvs6XkdBwJo/TCbPhty6+vR75Xz8xO5xp7GIZhmBEmjKCR25hK8X/6q72DZg+WNbHiBInO0gXIJJHKbERpn2lNCQtKHWLB9bh81EsLqwgtUsCUQ1JPnpldzmUYhmFGnDCCRu+emZbYCjxseQ/NDA9jxdZHAu9VxAXqEqxCzjo103BpKQrVlEPpbdn4aKBbVk7HCaErlwNkJE59qFnajb0I45nZTNPpXB5EYxiGiQkxWilEFzY7ofaNIGoihjEBYz0WCEtLTtsnj8o5gX3L9+QELDTd23JrofNxGfOBqkyVbiYaS7ehMsPqwVkGc8KHJc2ZDufSQQzDMMxwCbdSiMf30AjqdiS/aCbX4/5ng1cLYY/VTDzg99AYZuwxQu+h0UvUNK1R62p8thjN19H4GsMwDMPEH4+C5uA+Zt4yFF/fgz5e+4phGIZJADwKGruPYRiGYRIbj4Lm5D6mF3cm8rtoDMMwzLjCo6ARdvcxLGYMExP8bvEZRjHcZ8Lr+bQotVqp3+7wOhnxKGjmC9bMsKCXuXl9x7ENVSSqgohpRRFpBRdUDqtPLk9EW6lGe95YRRMNGcwHIlbXyXavQ7p+seTZgQpalHqX4bSzbl4E5bHlSSERBNGjoPmw+v4e6xhaPCFhMN8HU8HTSvuRCkqofFicGDd0j8/Kt1hcfux6OZqAkkgrz/RV2MHuZIbFwOY8pJYATeZ9EKEJw/AoHSSCQpTIB5oSJfJYnd0bYqaefk/JGSiy4cl1mZP4JspzruHZQtt019PYqo+hyRBHq2203Me45UMr/LMPNCYcVIHQj32jqgwsLds8BDWmHfcPYHN5Nbq6qrFYxMsWeLh07PgKsZK8EauKaXMFnaesNktaKs60KsxKzDU/5X5GhYoOh7KOWwawvRnCAqqzDM/46mjbdp3uuy/4vnhGFyUf6jSnrdtleua9ERHq/g/QfVss8ofh0DM17z7cN5z7Zn/OR4gYrhSij58l2DhajN3HuKLno1loQS5j5L5ylOeaaQeLrWsZxTmBY9tRrvaxW5okJj0L2dK1PVUivVjrb9UWo7lcrwDc9hveopeoFvGOVfvCpBPMwOaN2GK65heVVm8hnUsVq1GxZTcZaUnvylTz+epkq3uJPNutXKJSzpPmhxEvQp3PXtZxbN8NbEdzl5sFZLtOt19suy9e8aFQeZn2d2Wa+NMToWkltljExvBMbuY/uONe3Dvc++Z/zkeOcCuFhBe0fQ/ClwgWWThi5T4mHFo+EiFeji5jdnZjwTYz7TI0FFgXKnYt4zpxbIs6sr0FDWXrUAmXPJjkQnbxqMqHArWQ9Qog3H4Tr8ep1jYds7i5OOCNWlRaq80ak9LSttOXFWPJFluXmFt+VGFDS4sJxmxEeEG/LxZEg8Jy7QP3lSwpX50SrcJW4xhT2PT05mWpxkkkhMj3oSPqmMQijKDtw4PldyHbXCGEZu4nwsr64dDHviJ1H6N2ecbNZYy28DHyi1CGbux9WW0TbnnTsQ0tMq32lgaUFYnU2C1NciNFQ1VsqgVsWjRBrfFw+028HKcfM9yxMK/lYgJIi6UZ24fdB2c6YRVBt6pEsFhSZFUPNmGlvUESNSHyJYvSjv6cx4kwgmZbIcR3M+K/sr4LMXMfEwYzH7VprKxPaUTgMiZk3vkoKmtAS3s7WhrKQHoWVR5MgqC69NYKQZEVXDU2uf2Awu03rbBwx0WCLa2B7c3oWlloFSu3/NKXoRgu5bBYnjT+po0LhdseM/iwegNQvdj63ToqtG0nyzoS6NrpXY3DFZWoy6M95yomHngcQ0t0Yug+JiS2fAghTkEuY3RLjKCuQ8rrSrVNhMg7fw1NPilAd80awxJzyiNiU5IZNUTlb3bNpKZuRNYuGluiHca4Bc0GM/aJYJk5FmJ/+iqsVWMleZvnhUknEqx5Lq7ORpM2qcDArVzGOJAeL+tWS1mHbZ4kNemrdhjjkuZ1E6EEqsGgX6dou/CoUdFT4k87lWY81kcpKpHeN9fnPH6EWW3fvsK+HfKRZp0YMiqr7UsLp0oTgaWo6ev0u2ppL08B9eIRS8vKgO4F2KZmJJr7ltb0Yd2eTNfjJKHyoX3LIY6fjwdSCqCSkel2FrbazitDGzkE9Z9Tib4QZRSJo9Y4UH0nmhxiy4P90ljg1fZHAJrpuDErMPbGMKNMpKvtR+A+xhvsPkagCVdUstNejpT1C9AX7fnjEBa0WEKTAUqwBUuwYdcOjOeJikx8GSH3McxoIieD6N2aDDOqmJMBWMyY5IIFbSQY5kvX+fXK+zbDMAzjGRY0hmEYJimI0UohDMMwDBNfhr9SCMMwDMMkAeNb0Gg2Iq+LyDAMMyZITkELEiJ6b8vD4sImLGQMwzBjjuQUtIxClKIRraYi9beKLW3txHCw6xeGYZgxR9K+WE3uVJZjm7FiRns5cveuMT6T9eVfpUOt7AHjRefSnCpUNZShrW8B1tOLz9uA5eYL0Jbz1Moe9NESL6DV+lkME454vlh94MAB9YlhmFgyZ86cyFYK2bt3rxS0WDIqK4XQahotRRiqz5fLWbUU0btbtERUC4p0MTKFS4hSTpt6v0uPl4JmLF8lVEzuJ7HM3LNOpA255JQZ7z+PBS3h4JVCGGbsEdVKIVQRxDKMCn43K/3Y261WpaeV8KWbFeWWhSwrczFiYVmtkSrngFxBP7A/o7AUSyltWzzDMAyTuCRx05LcrHRjb3srGnOKDIuMUA48pVsWGYbhO6xvj7bAMMMwDJPIJHVfSX5RDqoKqpBjOA0zHGHurIIXx9MWbOdJdy5lQiTJCtypTT5hGIZh4ka4lULkGNpIdBOOzmr7tjEzwmkShz75g+KCxtBCTAqhsTrTzwtB6fEYWsKhj6Ft2TNZ/h1JyPo3oe5thmFiz9/PPxn5pJDkFbRRRpuIwiQWLGgMM/aIVNCSustxNKAZlHKCCQWa8MhixjAMk5CwoIWBXLnEZIIJwzAMM6KwoDEMwzBjAhY0hmEYZkzAgsYwDMOMCca3oNFUfV51nxmvvPpd1HzpuzisNpkEYrj3xuv5nV9FxUemy/DzThWXxCSnoAUJUaK4j6FypCCFRZLRKgoZNjyqdgyTSCs6p+NZyEYXt2chVveB0tHSr/npgNrhgCXPR/HzqhdQ/IvjqPu/47htbgTlSdBnKDkFLVHdx8hylIl/vLrIeObwT29ERRVQLioJqigolOPX2K32x525X0PVD7+GWWqTGTli/iwECYkQpc82YbESpbr/a8HlL4WofPR7/2ov9mMRLp0r94QmQQQs3EohSdrlmIHCUqDRVI2+PUBpYWAVEPO9sRRltSmLrFa+U1aOdicLzXKeOEZFW+NFCGF90ZJZKF2DopydgbIx44wB9DwG0er9HhaqGGJhtdhWlcITG6gl/VWjUqM4f+v6RjzxqjzcqAiD4gfwxL/eiZe678S3zJa4y/khsVROe/H4l2znO5TTsTxBx4nyibQCXVeisvVapjFJiGfBfi+//y/Bz4ZndFG6CbdV36Q+Az0yPSPI++K/9ySEIn/8J+pp/5f+Ga32ZysB+dd7K9UnZzwIGi0vpVXwEupas8eNLhnzc7Bzj1xHH+0tDciZT3Imypq5B+vM98b6hB23XAnQzirsKXJ7l4zOM9zL0Hl9Nd0oKKdvZ40f6qvBUuMEB/oh9UyYiflFZdjZ2OoqfMwY5tU27OoO0eoVFcahG6glTZUaVSp7cZPZev9FCXb9qyE0sz7/hGpxi1CzCM0/pm6qdNz4z9/BVTnfwT0ivurz/a7ne6b7Bcz+Z+P8e0Rd0WyebymnW3nsx4ny/cMX0fmk2tf5a3QWVeNGLxbAWCTks2C7l4UXB11zb9yEnCIlSvZubX96dM/Effkv/dkQwveLQP51P/xXFFqerXR1XHIxDAutG3vjWWPH2X0M+UwzrbZcMgP1bk9e1Hh8kzPfvTtPVBifzFWfZZePqowoUIu5e69R6eiWV9V/isZ+b7BQhTrfKzklyFYV7qy/KsFV5vl6OQm38tiPy/00cluMLrXdT/4ncm8IWAvjklDPgh37tfRDlq5+jw0rirbJklpYrUTrhl8bx5jCpqc3dz6uUh+9EyLf1iPqmMQihKCpCQ4pBUIiNJGQIRNVOetADqLjR3zdx2RUdvrzIE/ZcoV+YQVmyutD14y7Hcclc7NweXcTerx2s4lKR7aQ/UG0zkk89HERakmrw4NwOl/tihmRlEdZDN2dj6K75YvIcaygxwmRPguuCGvKvL+6VSWCxZLK/Z6Ia/E3KIZPiHzJokxAQghaBio7dWGwhQRY0zBx3MdQd+NOlJldkxTauNtxfHITPkldd5+1joPs3uAwLiIrvDvxuNN0ac1yOvy/TXjJ+GhgWlGhzo8CmU/Rp50FMVR5bCz8u+9gf1UR9ldWBdKSFp52DcJtjwk8PAuRWtR26LrpXY1ktUdiFdoZbnnijLcuR1pl3mKhUYjvGJqEBEf8M/WMrLb6vhp0F2jl9DSF3npeZlUOjEWIRXybEM1MlZbulkZHdjfauia523HcQuNN91S+EOgKFKEeTkJhjGPsrwocV0ED9nO/hpvSA907P35pUcAion1qzKTmpxnO56tD/WhdRUETDrR933qsBPdoEwr8hCqPE3MLsDjnI1j8V8k5DhNLQj4L+r2MtguPrvVAkT/tCrKk/znKGayWZ8vDpJBQz1Wc8OA+hiaFrMeCvs6IuhjZfQwzmrD7mASC3rv6r/m4h18NYIbJCLmPyYGcRDgOYfcxDBMZcjLIP7CYMaOPB0HLx5qabrTEvX8xPrD7GIaJDJp1d9t4ngzCxA0PgtaOB6p2okEfl5IhAcbQGIZhmHFDDFYKyUe930Jha4VhGIaJDzFYKUTgX/5JLSVFkyN4AV6GYRgmgfAwy5FesF4ObOvE/AdysXcNzXYMxLnNfByTsxyZhEWf5TganDt3Tn0SrUI1C4thmNhCv7MYz3Lsw56dCTbLMWhxYRJYYT0+5rLoMMXZFxkWQS7XqB+jNhmGYZjkw9MYWlFZg3WWY/sDqIrEXUuscXMfc6XadkNfFku9SO0XNYZhGCap8dRXkl/fhwXrU1DQsNNYNYPexxoJf2KeCeE+xivkE41EbT1bZgzDMGMBD2No0THiY2jaqh308nNL0RDqM2uR67Q8FVlm24DlcthPF2JaBaUFRX0LsD5oH5NMxHMM7cCBA+oTwzCxZM6cORGNoXlc+kpU+pZp+jRm9QDmd7pP3R/5SSFmudZgr1kWGguzC5MZx4I2puFJIQwz9hiBSSFuxNkfmhzbc3AfEwnS39kCZKpNhmEYJnkJIWiJ7g9NSJrdfUxECOuMvFGvY6uMYRgmGRjGSiGJ7w8t2H1MGPwOOCmQB4Eh+L+GZR8v68UwDJNoxGalkET1hwZalksbx6OZi/ZxMDOO/lpEWXspPGif+9ggwzAMk5h4ELR2lBd0o0ZYM4EKnyt9hmEYJrHwOClk/PpDYxiGYZIDD4I2vv2hMQzDMMmBpy5H9ofGMAzDJDqeLDT2h8YwDMMkOh7H0GhFDd06U37RGIZhGCZB8CBo9II1rUasWWd9pWjMjH+XY39triayKcgNp7LsJoZhmGRgYDPy8jZjQG1GjNfzOyqQmpoqQ0WHiktiPAga+UOzvbxM7luWxnfpKxKzzMbSgDuYoTbkVGWGFzWGGUmoIlEVRCDkYXPUNZMHQlVe0VaMWkUng1nb2b5fHn2xoDwGsDlvhL9zMhHqWg5HtEyc7okbljw7UFHSgw27BjE4OIi6eVGUx+27jRDDWCnEJBMLltr8oZH/sbg6/aSJKkDNNv0l6nzU99WQTxllgVm7ScvbhaW5vAo71YogJHxWC091o0pHoLr1SemobbnPdjzD2FmyAbtEBUGVhBF2YFW62pcEDGzOQ2oJ0KR9hya0iupPVICLm1GsKsDBwSZk9+4D0pehGM3YbtaEA9vFVjGWJdF3Hincr2WUBImgyz1xI30VduxYBXlrBnrRg2xkeblPDuIb8+/mgRisFEJLYLUB+izHzD1YF89JIXJRYQcHoxnzkbNzj7Apg7tJ6/PF99hWg6XKyWdnZQYyKjv9+4faclD1gJCtjEqs0x2atregoYwWP6a1H+l7q+Op23U5d18yXhEVj956lq1qYcX8liqKClTkBVq5/kaupeVdYVQUqmLZXGHGCWuovBpdXdVYrKcvcdjnlKaFAWxvhmi118GnYghfnbmtV4A+1NVRbDqWFQPNpqLt6wWKlxmV5rgm1LW03Zv77rPd10hwuicG22V6RpDPlV+YSAhF/tiCEtqfdx/uc32OnAj3nMQHj5NC7DMdE3yGo/RgXYM14QqpW1wFDUD3XilQ+UVlaFCK1t7SjRpKiERUX6SZ/K5J8WQYG6pSMCuSVFmBiIpm1wagepMSIWpVC8vt/XR8D7LqVSu3aSW2lFCFZlQ42U1G/K4NPSgxlU6k31tI8VR5pGNV/QYsUVbhDospaN+3zz1NE7Kuutxa7T4UrlQVoO289KxsdCnLoKN1C7I9NfvHOCGvpe3e3H6x7b56xf2eBNITgZ6rjbqFZTyPZv6DO+7Fva7PkQMhv1v8CCloskvOYRIFOdRMKQ90yo060hJrhOmw2k8k7mBIzDIbUWou6dUnrDe1C/lrUNPdImyydrR0a5agsu6SRtiZ+GBWEmYwu3jSV6GeRCR1MZqL6wPdkEu07jlfIVaiB72/7UWPSGe1qtnShQm0ZIvqztHiI4K6mNzS1FmShXnqox1fnfpOha2GWJuVKJVbpjWA3p6VKIxnMz2RCHEtg3C9r4Z1L683WVVag4ksKdd7oqc3LwtL1EfvhMj3oSORfbdRIoSg9aO10T5OZZBf34ayBqrw4wWtXgJUWbr8qEuwCigtREZGIUpRBepBDEK3qrRuy37xZQOerjNQWNqNlvIWdFN6MopE1CVNhvEIWTIJTXoWsru08TA3fHWiEm1SIiYjhKUghLhDtNyzCyOwMMYwXq9lWIQ1ZTaOdKtKBIslFXRPhkuIfO9dGqPvFltCCBrNbnSb+EETReI7y5HGv/pKGzWXL8aYGY2NkSDReFm3Nu4nDUo1PkbdhrmthViXE3AZs3xPTsBCE2QUlqK7AVjnX5LfmHSip+lkvTKMO6LFKwfRm5BdXe48C7CjFVvIYvsEVYbV2KRqpoHtzehaGUIounrhOhXA3Ccr2HBp+rCaekYXW8dxOirENo2/6N1a0uILtNJ9hdmoLqlGNplncqxOSyPc9pgkxLVUn0PeNy+EuScR47k8Hr5bHAghaKFEK5TYjR6WSR0iWFy02VzCmPvy641tEj7zs9yur7e6npHn27oU7W5m7K5qGIbQumaMQFPYqfuG1IzGR0TLt0lU/mZloB9Ph8guSmOMo6fEiF9cnS1OdZGz9FVYq8ZRggbzLfvmeUozfdUOY3yNyqNCCYTw0WzGnhJ/XCrNrqtX3amE7C7l7kYd12tp7AzcG+rCi4Zw9yQSQj1HDoT8bnEiZe/evUNZWVlq0wb5QZOGj16x0zT2AnTX9ClryJn1367Dum9WqC2GGVmeeeYZuD7HI8C5c+fUJ9EqnOBxbpUT1MIuB+rNcTaGYfzQ78z8ffX29uL3T/wKc+dejmvmp2PuFZdjxozpmDhxotxPhP4l5tdjqG8B1ptdbDLoXXsMwzAMkxiEb1rau9lEsHTtMQwTPenai64Mw4QkBiuFMAzDMEz8icFKIQzDMAyT+Ix9QaMXqHl6PcMwzJgneQVNX7ZKhIRYZV8XTxZShmGYUSVJBY1WBdGWrSLXMXsSbFVFmkzD76kxDMOMGknc5ai/2J2Pev/US3pPLmC5lT9pxLbS+pNmnLl8lcXK09zH5JajPNc8llbut57n6HZG2GIW9zT33K1ZaLYyiXQsabAlxzAMM2ySVNDyUaSWsLIukuzgNuYGES1EZk+RimsrQ8N6EhCy8lzcwezsxoJt6tiC5YD5WZ5HxpeD2xm13JbfPc2KWZSSwKFMmbVYXpUjooztthxetZ9hGGa4hF4pZBiM2kohcjWTBqCsDUNr9iKX9Efv6iOLS48zt7cBy8kFjDzIpAxt9CK5ebx+rv2zfi6JmNvxlI8Zpw43V1tpoPx4xf6YEM+VQg4cOKA+MQwTS+bMmRPRSiHJL2gSEogWFOlipPaEFLQgoRE4iZL+WQohjd91Qi6W4uV4M87IQYOFLVYk7dJXDMO4EtulrxIVEgu9q9H0gxbKbYyd4biDcXU7I7A7/XQqkyh/uRx4I8epfaiJs+cChmGYZGBsrhRCItFdEJhUQRaT9Nvm4DZGTQoJJkp3MBmV7m5naJ/pnmbrYTMyuEx984GqTLWdicbSbYa1xzAMw7gSbqWQMdLlyIx3uMuRYcYekXY5SkFTn2MGVSwsaMxowoLGMGOPiMfQZs+eDQqE+Xk4gWEYhmHiATctGYZhmDEBCxrDMAwzJmBBYxiGYcYELGgEvdcWyXqKkR7PMAzDjDjJK2gkKuq9LgoJ4T6GYRiGiRtJKmi0sHCCu49hmEg4/AS++90nYL6O78ctPhaMZNojSbhyJ+v3YsIyNlcKkTi5jzFcvQRWxaK1EnNR+xh1EYZ2CQPswQMqLuASRmCxBMtFilbYDQxjgSrTu+/G3Vpo3K32ORFN5Rt0zmE88d3v4gmviYxYhU/lEN+ZxYQZIcKtFJKkgubmPiYDlevK0NCi4tpb0FC2DpVXis9hXML49wuLr68GqJKuZMgSrEKOcv3SV9ONAssakuwGhnHgMh8q/+3f8G8UKn049FiICn7Wjfja126E6WzIE7OyRXOuGz1mood7xFYOsr0mEk2eXpDl+KD4p5WNYUaRpLXQ8usNERkqajGsI1No8otQ1tAiLan2lgaUFak17M0FhTMXYKn+We4UaAsOZxSWYiktMiwXPa7BGpWEjFdpS2iBY5CwGpZbfj2vmM/YOPw6Ds6+FLPsVpG57WQtUZxp4dV24KCKDjAL2TlAt6kaIg/kZBsCpZ97t7LaVB5PNFJcI3aHy5OOUdHWeBHs52kc7ukW5fgEFs0+GCibjsy3EY1kxYm0Gncri05+1o7x5+dSDvOayPQcrqnalFjSi8CKZZKSJO5yVOTXyzE0U8RM662lvR0tDWUw9WxkoNXySViL0OLSJcmMQw52oNasRB86BN8nFqodXtiNRlFhz749YOFdpvbozLp0Ng6+btTOu194HrMvJTmjc1/Hp/zWobDjfqYqeFGm1xdRfCmCS2PNs9J3CA9JhfFWFoPDkHomzMSFiz6Ig909zsJ38BAu/ZxI6/YP4vmHfgaYn6UVG4ty6IS4HsyYxKOg7cODvjRUdgQ+p6WlwffgPrl31KFxLUvXn3Ifozbz19Dq9gXorlkTlcUkXcKUFSHf5mLGH29synKwGxgmCEuXY4SVqLC2Donzw2rgwkX44PMviCr7MF4/9EEsouPpXDyPh0wxFSJw8ODrRt6h0rTlOUuYf5dR2iHKcviJ7yqr5258l8wevduTynbQpdvxMnXMrEtxmf6Z9kVRjpCEuh7MmMSjoA2g9+kVuNknPnZswl3ZD+Po0YeRfdcmSI0bbVzdxyho/9KlKDX7EL0ghMt0CZPZWIo+OcnE6mImk8bLZLxCCB67gWFCIirr2SNSiS7Eog8ewuu7hZDMXhSwukTF7xdTGZwsMo8IQQju7jSYdePX/Hl87cZZsrvxoN8yfUjIiEu342gTy+vBJDwRdzl2PLIV12eli0/pyLq+B31xMdIyUNmpxtBkUN6jTdofQBUCY2Lkp6zT9Bjt9Jn++tMSQfcubdmnxsj8aZhdjkboZDVj7Ox+Ac9fdqkxvqUJmxQA9dmCFMCAdeN6nGDhotnoeKgDs6V5JpDnduC3/oEnj9jOk3l+UIhkKEvLAnU3HsQHzS5BCreH6HZ0w60coa5JqGsa6nrIsTX7GF2IbSYp8ChoPtQ+DNyaloZbt67AnV+ZZ1hqKMYy8THRkJNB1mmixDCjid9SEeEh4HaaUTjrRnyOxoRU/M9en+0yDrQQpbcLoaoNd5yABEf8M/VMnkuzKh9SeVMIMYkjgPW82o7ZuL2UErWWxXmCikB2N9q6BD2LoY63cvivSdhrGu31YJKVlKNHj0p/aIcOHYqJ+xdKh/2hMaMN+0MbBXY34u4XFuHfpMgwzMgTsT809TcMHahMq7SNl9HkEHscwzBjid1yqr8KZG2ymDFxZIRXConXGBrDMKPBwlJtXIwnVDBxZpgrhZhT9G/FVvGPxtBour4RrsNd2XeChtMYhmEYJt6EEbR5+ErHURw96hJqaR4/wzAMw8Qf712OHZWadWaGOI6hObmPscX5V+6wxGurebSXa8eKQC9rB6VBQVusmGEYhklIvE8KubUH9z9rt9JqER8bLYT7mKU16DPfDWsDCmgFfHpvrK8GS+U+410yuUp+AfwLC1Nog1o+S09DBtt7bgzDMEzCEcGkkGxkJtR4mZP7GBu0UDEtMqw2A/SjtRGo6bMuJsyLCzMMwyQvHgXNh9X39+CRhJmj7+Y+xkp/7Xo0aGs8+ulvReNOXRBtaMtgycB+zhiGYRIez12Om+56GltvTZwxNFf3MfY1GfVlrHSchM7E3uXolgbDMAyTMHi20GotY2fxHkPTsLuP0cXITYjkKvqNaGWzi2EYZszgfQxt34PwSavMB+k1hmY9+h5EXN6rppmIIdzHhCcfa8grdabVf1l7OfszYxiGSVRitFLIPjxY3oziZ4/i4RUqyrca96MZ2+OhaOHcx9ghAcyswk7ZHWmIVkZlJ/pquo1xOBUKoHyd2cfQeNo+wzBM3BnmSiEm5A8tkWY5uriP8bt1seHkAkZGd2ppiEAzJS3HmoGn7TNxZGAz8vI2i1/hCDCSaY8k4cqdrN+LGRaex9BuXrHVOssxgd3HMEzcGK2KNCifAWzOy8NmrxmPWDmpHKlIZTFh4oDnMTRf7bPI+g75Q3sad12XhrRbgYc7vgLWM4aJA+nLRHOyGdtN1RjYLrZEA5N873ohfRV27FgFr4d7RpZjpfinlY1hRgnvk0KC1nVMgBmODJMskEWUKiwXGSr8r7sMbM5TcRQ0C0s/fnE1ulR0gHQsKwaaTdXY1wsULzMEypKXSlNZZJsrKE7k72ShuZTRGi9CCOtrYHuzKMdqFGZ3BcqmI/OtQAVZcSKtig5l0cnP2jH+/FzKYV4TmZ5WHvs2YUkvAiuWSTq8C1qireXIMElDBypEBZzdNIjBwUHs2tCDElV7p6/aIeNkaMpG9SaKtx4/uGsDlsijraRnZaOr15iV1dG6BdlZJGd0bi/WmmnuEnZcuargu6rRW0jxdQ6NUbcyeiuLwQCkngkz0Ve4El3N252Fr6sHWfUiraaV2FJSDpifN1I5Y1EOnRDXgxlzeBS0RFvLkWGSiIFe9CzZgNXqx5IuTKslW1rFr0qgWw8lW4CeXgzYjnfFV4iVMp0B9PasRCEdT+diC0rMNIUIdHX1Gq/XhErTrYwhyqJbl3lk9ujdnlS2LpduxyXqmHlZWKJ/pn1RlCMkoa4HM+aIoMsx0dZyjACats/LVzGJBonZYiEBuyK1Okx8KFzZg94OISTZhYHGpaj4d5kWiQxOFplH9vU6dHca6NbljlXpsruxS1iBi6V4lAgZcel2HG1ieT2YhMajoCXaWo4GcsV87X0x6ULGhEWMSRTSs5AtKnrZmyiQFf9KJUCmhSKQ8fRBHh+wbvzxDvgKs1FdUo1saZ4JbHl5xq2MoSwtC9Td2IWVZpcghaYQ3Y5uuJUj1DXRLK6gaxXqekjr2D5GF2KbSXg8dzkm2lqOJGZyrUb/u2JtyKnKtIoaw8QDUYEaVgoFqhB9qBPWV0+JEbe4OhtNdUKA0ldhbXbg2PLebGWhieNpPG2xPd4BEhzxz9Qzea6WlwwhJnEEcCmjrSzOE1QEsrvR1iXoWQx1vJXDf03ENayncTYqmx7vJ9rrwSQi4VYKSTl69OgQfTh06BBmz54tI4cDpZOVlYX1367Dum9WqNhY047ylPVY0Gd74ZmssuXAts5CtOZmomqnEb307ruAx2ehNKcKVQ1GXFnbEKTHGXMVERm7FDWUJox0jOPL0DZUj0wSUH+CNe6LHjNx4ZlnnpHP3Whx7tw59Um0CidE0HOf7HRUILW1EINSZBhmZKHfmfn76u3txe+f+BXmzr0c18xPx9wrLseMGdMxceJEuZ+I4JfYgUqLdabWdIwHcu3GUhTaFUUuOkz+zzJQuc106DmEzhWz5HJWe4qUNddWhob11B1JjkL3YJ1p5fWVonG56qb0H1+PfCF6y6ty/M5A23KcfKwxzNikQ071V6EEymJimMTDo6Dtw4M+epNam+H4bDGar0uiaftC3NaYa15lLhC2mICEEcqvGgW53qMSK/14Ekp5nLEOJDsCZcYTvjptXIwnVDAJjEdBo7UcV+Bm/UmetwzF1/egLx5Wmpv7l4hX3Rfo7mZkcBKrfNTLfUVokeLHq/IzDMMkGh4FLR1Z19vWcty3Hc1xW7BYuX8xuwcl1H1YBZQWBsa2TGvLDSmMVXggnDr116JcTjYhYetDzdJu7OW5JwzDMAmFR0GjZa8eBvRZjtf14s44vlgt3b+UNmpuXgqAtiF0mrNEMiqxrszoTszdetiIC0IIVF8NugvMNERwmuovhA9VmeqYTDSWbuPV9xmGYRKMJJ3lyDBWRnuWI8Mwo0tsZzn6PVabgddxZBiGYRIHjxYazXK8Dr13HkWt2cdIixV/JwvP2lzIsIXGxAOy0BiGGduEs9A8Chq9g/YIbraMmZHI0UrZHfiKpmgsaEyicOzYMRw4cAD9/f3y77vvvmt5IZpJfH7z2O/wN5/6OA4fPoyZM2eqWCt0n2fNmiWPfep3j4V100/QihN8XDCJfty/rK/DT7bVISPjSsy5bLYUNH1hA89jaB2VPvSt1sXLSeRY0JjE4fjx4zhy5Aj+8pe/4M0338SJEyfkqxlM8vCL5kfw2eKbsX//fjnU4QS9F3v55Zcbx37mIyqWGYtMnzYNF12UhiuuuAwXXZiGadOmRiNoJF63YqvaCmYFHlbCxoLGJAqnT5+WokYvBL/33ns4c+YMC1qS8R8//DH+8Ut/h5deegmXXHKJirXyxhtv4KqrrjKOXfEpFcuMRSZPnoTzzpuOVGGtT58+DZMmTZSzz014liMzZqHuxbNnz0pho78sZsnHd2q+jzurviy7jS+99FIVa+X1119HRkaGcexXP61imbEIiReJ2KRJkzBx4gT1KlUUgrbvQR+uu+tptWUSsMxMWNCYRMEUMPtfJnn41sZNuGftajll261+Musceew/FalYZixiipf9r4nHafvkPiZbiJe2lqMM8XuxmmHCYbbeqI+dAs2G4pBcIZL7xvd47Afzt2z+tu14FDQfbl4Rp3UbGYZhGMYDnl+sTs8C7rpOf7GaX65mGIZhEgfucmQYhmHGBNzlyDAMw4wJPFtoj2x9mrscGYZJaC6/8qPqU2j4OGeS+zjg/wNJO19LMAdZSQAAAABJRU5ErkJggg==;" vertex="1" parent="1">
          <mxGeometry x="430" y="285" width="226" height="146.69" as="geometry" />
        </mxCell>
        <mxCell id="uZEzKnc5bTBddtEJTUq8-9" value="" style="rounded=0;whiteSpace=wrap;html=1;fillColor=none;strokeColor=#FF0000;strokeWidth=3;" vertex="1" parent="1">
          <mxGeometry x="520" y="361.69" width="140" height="30" as="geometry" />
        </mxCell>
        <mxCell id="uZEzKnc5bTBddtEJTUq8-28" style="edgeStyle=orthogonalEdgeStyle;rounded=0;orthogonalLoop=1;jettySize=auto;html=1;exitX=1;exitY=0.5;exitDx=0;exitDy=0;entryX=0;entryY=0.75;entryDx=0;entryDy=0;strokeWidth=3;" edge="1" parent="1" source="uZEzKnc5bTBddtEJTUq8-10" target="uZEzKnc5bTBddtEJTUq8-19">
          <mxGeometry relative="1" as="geometry" />
        </mxCell>
        <mxCell id="uZEzKnc5bTBddtEJTUq8-10" value="&lt;b&gt;Project &amp;gt; Create Library&lt;/b&gt;&lt;div&gt;&quot;Compile&quot; all the &lt;i&gt;Subcircuits&lt;/i&gt; in a &lt;i&gt;Project&lt;/i&gt; into a &lt;i&gt;Library&lt;/i&gt;&lt;/div&gt;" style="shape=step;perimeter=stepPerimeter;whiteSpace=wrap;html=1;fixedSize=1;spacingRight=20;spacingLeft=20;fillColor=#dae8fc;strokeColor=#6c8ebf;" vertex="1" parent="1">
          <mxGeometry x="425" y="465" width="240" height="80" as="geometry" />
        </mxCell>
        <mxCell id="uZEzKnc5bTBddtEJTUq8-29" style="edgeStyle=orthogonalEdgeStyle;rounded=0;orthogonalLoop=1;jettySize=auto;html=1;exitX=1;exitY=0.5;exitDx=0;exitDy=0;entryX=0;entryY=0.5;entryDx=0;entryDy=0;strokeWidth=3;endArrow=none;endFill=0;" edge="1" parent="1" source="uZEzKnc5bTBddtEJTUq8-13" target="uZEzKnc5bTBddtEJTUq8-14">
          <mxGeometry relative="1" as="geometry" />
        </mxCell>
        <mxCell id="uZEzKnc5bTBddtEJTUq8-13" value="Source Files" style="rounded=0;whiteSpace=wrap;html=1;fillColor=#ffe6cc;strokeColor=#d79b00;fontStyle=1;fontSize=15;" vertex="1" parent="1">
          <mxGeometry x="200" y="205" width="180" height="40" as="geometry" />
        </mxCell>
        <mxCell id="uZEzKnc5bTBddtEJTUq8-30" style="edgeStyle=orthogonalEdgeStyle;rounded=0;orthogonalLoop=1;jettySize=auto;html=1;exitX=1;exitY=0.5;exitDx=0;exitDy=0;entryX=0;entryY=0.5;entryDx=0;entryDy=0;strokeWidth=3;" edge="1" parent="1" source="uZEzKnc5bTBddtEJTUq8-14" target="uZEzKnc5bTBddtEJTUq8-16">
          <mxGeometry relative="1" as="geometry" />
        </mxCell>
        <mxCell id="uZEzKnc5bTBddtEJTUq8-14" value="&lt;span&gt;Compilation&lt;/span&gt;" style="shape=step;perimeter=stepPerimeter;whiteSpace=wrap;html=1;fixedSize=1;spacingRight=20;spacingLeft=20;fillColor=#dae8fc;strokeColor=#6c8ebf;fontStyle=1;fontSize=15;" vertex="1" parent="1">
          <mxGeometry x="425" y="205" width="240" height="40" as="geometry" />
        </mxCell>
        <mxCell id="uZEzKnc5bTBddtEJTUq8-16" value="Output Binaries" style="rounded=0;whiteSpace=wrap;html=1;fillColor=#d5e8d4;strokeColor=#82b366;fontStyle=1;fontSize=15;" vertex="1" parent="1">
          <mxGeometry x="720" y="205" width="180" height="40" as="geometry" />
        </mxCell>
        <mxCell id="uZEzKnc5bTBddtEJTUq8-19" value="&lt;b&gt;QUCS-S Library&lt;/b&gt;" style="rounded=0;whiteSpace=wrap;html=1;labelPosition=center;verticalLabelPosition=middle;align=center;verticalAlign=top;fontSize=13;fillColor=#d5e8d4;strokeColor=#82b366;" vertex="1" parent="1">
          <mxGeometry x="720" y="295" width="180" height="280" as="geometry" />
        </mxCell>
        <mxCell id="uZEzKnc5bTBddtEJTUq8-20" value="&lt;div&gt;&lt;div&gt;&lt;div&gt;&lt;div&gt;Library Device 1:&lt;/div&gt;&lt;div&gt;LM386 Op-Amp&lt;/div&gt;&lt;/div&gt;&lt;/div&gt;&lt;/div&gt;" style="rounded=0;whiteSpace=wrap;html=1;" vertex="1" parent="1">
          <mxGeometry x="750" y="335" width="120" height="60" as="geometry" />
        </mxCell>
        <mxCell id="uZEzKnc5bTBddtEJTUq8-21" value="&lt;div&gt;&lt;span style=&quot;background-color: transparent; color: light-dark(rgb(0, 0, 0), rgb(255, 255, 255));&quot;&gt;Library Device 2:&lt;/span&gt;&lt;/div&gt;&lt;div&gt;LM317 Regulator&lt;/div&gt;" style="rounded=0;whiteSpace=wrap;html=1;" vertex="1" parent="1">
          <mxGeometry x="750" y="420" width="120" height="60" as="geometry" />
        </mxCell>
        <mxCell id="uZEzKnc5bTBddtEJTUq8-22" value="&lt;div&gt;&lt;span style=&quot;background-color: transparent; color: light-dark(rgb(0, 0, 0), rgb(255, 255, 255));&quot;&gt;Library Device&amp;nbsp;&lt;/span&gt;&lt;i style=&quot;background-color: transparent; color: light-dark(rgb(0, 0, 0), rgb(255, 255, 255));&quot;&gt;n&lt;/i&gt;&lt;span style=&quot;background-color: transparent; color: light-dark(rgb(0, 0, 0), rgb(255, 255, 255));&quot;&gt;:&lt;/span&gt;&lt;/div&gt;&lt;div&gt;...&lt;/div&gt;" style="rounded=0;whiteSpace=wrap;html=1;" vertex="1" parent="1">
          <mxGeometry x="750" y="505" width="120" height="60" as="geometry" />
        </mxCell>
        <mxCell id="uZEzKnc5bTBddtEJTUq8-32" value="Creating Libraries in QUCS-S" style="text;strokeColor=none;align=center;fillColor=none;html=1;verticalAlign=middle;whiteSpace=wrap;rounded=0;fontSize=25;fontStyle=1" vertex="1" parent="1">
          <mxGeometry x="323" y="145" width="440" height="30" as="geometry" />
        </mxCell>
        <mxCell id="uZEzKnc5bTBddtEJTUq8-33" value="To make edits to the Library Devices, you &lt;i&gt;must &lt;/i&gt;go back to the source files. The &quot;compiled&quot; Library cannot be edited directly." style="shape=callout;whiteSpace=wrap;html=1;perimeter=calloutPerimeter;fillColor=#f5f5f5;fontColor=#333333;strokeColor=#666666;direction=west;spacing=5;" vertex="1" parent="1">
          <mxGeometry x="200" y="575" width="180" height="130" as="geometry" />
        </mxCell>
        <mxCell id="uZEzKnc5bTBddtEJTUq8-34" value="Libraries can be stored at the &quot;system&quot; level (accessible on all projects opened on your PC), or at the &quot;project&quot; level." style="shape=callout;whiteSpace=wrap;html=1;perimeter=calloutPerimeter;fillColor=#f5f5f5;fontColor=#333333;strokeColor=#666666;direction=west;spacing=5;" vertex="1" parent="1">
          <mxGeometry x="720" y="575" width="180" height="130" as="geometry" />
        </mxCell>
      </root>
    </mxGraphModel>
  </diagram>
</mxfile>
